<svg width="17" height="17" viewBox="0 0 17 17" fill="none" xmlns="http://www.w3.org/2000/svg">
<path d="M6.01135 11.7793L11.6114 8.17932L6.01135 4.57932V11.7793ZM8.01135 16.1793C6.90469 16.1793 5.86469 15.9693 4.89135 15.5493C3.91802 15.1293 3.07135 14.5593 2.35135 13.8393C1.63135 13.1193 1.06135 12.2727 0.641353 11.2993C0.221353 10.326 0.0113525 9.28599 0.0113525 8.17932C0.0113525 7.07265 0.221353 6.03265 0.641353 5.05932C1.06135 4.08599 1.63135 3.23932 2.35135 2.51932C3.07135 1.79932 3.91802 1.22932 4.89135 0.809321C5.86469 0.389321 6.90469 0.179321 8.01135 0.179321C9.11802 0.179321 10.158 0.389321 11.1314 0.809321C12.1047 1.22932 12.9514 1.79932 13.6714 2.51932C14.3914 3.23932 14.9614 4.08599 15.3814 5.05932C15.8014 6.03265 16.0114 7.07265 16.0114 8.17932C16.0114 9.28599 15.8014 10.326 15.3814 11.2993C14.9614 12.2727 14.3914 13.1193 13.6714 13.8393C12.9514 14.5593 12.1047 15.1293 11.1314 15.5493C10.158 15.9693 9.11802 16.1793 8.01135 16.1793ZM8.01135 14.5793C9.79802 14.5793 11.3114 13.9593 12.5514 12.7193C13.7914 11.4793 14.4114 9.96599 14.4114 8.17932C14.4114 6.39265 13.7914 4.87932 12.5514 3.63932C11.3114 2.39932 9.79802 1.77932 8.01135 1.77932C6.22469 1.77932 4.71135 2.39932 3.47135 3.63932C2.23135 4.87932 1.61135 6.39265 1.61135 8.17932C1.61135 9.96599 2.23135 11.4793 3.47135 12.7193C4.71135 13.9593 6.22469 14.5793 8.01135 14.5793Z" fill="white"/>
</svg>
